<svg xmlns="http://www.w3.org/2000/svg" xmlns:xlink="http://www.w3.org/1999/xlink" width="372" zoomAndPan="magnify" viewBox="0 0 279 193.499995" height="258" preserveAspectRatio="xMidYMid meet" version="1.0"><defs><g/><clipPath id="15b3efa37d"><path d="M 188 93 L 278.640625 93 L 278.640625 94 L 188 94 Z M 188 93 " clip-rule="nonzero"/></clipPath><clipPath id="bbaa9b4e06"><path d="M 188 138 L 278.640625 138 L 278.640625 140 L 188 140 Z M 188 138 " clip-rule="nonzero"/></clipPath></defs><path stroke-linecap="butt" transform="matrix(0.748067, 0, 0, 0.748067, 11.284805, 138.829378)" fill="none" stroke-linejoin="miter" d="M 0.000469813 0.499617 L 118.519481 0.499617 " stroke="#ffffff" stroke-width="1" stroke-opacity="1" stroke-miterlimit="4"/><path stroke-linecap="butt" transform="matrix(0.748067, -0.000000000000002876, 0.000000000000002876, 0.748067, 11.284805, 93.410594)" fill="none" stroke-linejoin="miter" d="M 0.000469813 0.500706 L 118.519481 0.500706 " stroke="#ffffff" stroke-width="1" stroke-opacity="1" stroke-miterlimit="4"/><g clip-path="url(#15b3efa37d)"><path stroke-linecap="butt" transform="matrix(0.748067, -0.000000000000002876, 0.000000000000002876, 0.748067, 189.3645, 93.036561)" fill="none" stroke-linejoin="miter" d="M -0.0016296 0.499414 L 118.517382 0.499414 " stroke="#ffffff" stroke-width="1" stroke-opacity="1" stroke-miterlimit="4"/></g><g clip-path="url(#bbaa9b4e06)"><path stroke-linecap="butt" transform="matrix(0.748067, 0, 0, 0.748067, 189.3645, 138.455345)" fill="none" stroke-linejoin="miter" d="M -0.0016296 0.498325 L 118.517382 0.498325 " stroke="#ffffff" stroke-width="1" stroke-opacity="1" stroke-miterlimit="4"/></g><g fill="#ffffff" fill-opacity="1"><g transform="translate(11.772941, 126.218891)"><g><path d="M 27.203125 -12.40625 C 27.773438 -14.394531 28.304688 -16.082031 28.796875 -17.46875 C 29.285156 -18.863281 29.796875 -20.015625 30.328125 -20.921875 C 30.867188 -21.835938 31.476562 -22.578125 32.15625 -23.140625 C 31.664062 -22.992188 31.140625 -22.867188 30.578125 -22.765625 C 30.015625 -22.671875 29.414062 -22.625 28.78125 -22.625 C 27.664062 -22.625 26.457031 -22.734375 25.15625 -22.953125 C 23.863281 -23.179688 22.535156 -23.445312 21.171875 -23.75 C 19.804688 -24.0625 18.472656 -24.332031 17.171875 -24.5625 C 15.878906 -24.789062 14.6875 -24.90625 13.59375 -24.90625 C 11.5625 -24.90625 9.734375 -24.5625 8.109375 -23.875 C 6.484375 -23.195312 5.097656 -22.257812 3.953125 -21.0625 C 2.804688 -19.863281 1.925781 -18.492188 1.3125 -16.953125 C 0.707031 -15.410156 0.40625 -13.773438 0.40625 -12.046875 C 0.40625 -10.929688 0.601562 -9.890625 1 -8.921875 C 1.40625 -7.953125 1.957031 -7.097656 2.65625 -6.359375 C 3.351562 -5.628906 4.160156 -5.050781 5.078125 -4.625 C 5.992188 -4.207031 6.976562 -4 8.03125 -4 C 8.539062 -4 8.816406 -3.765625 8.859375 -3.296875 C 8.835938 -3.046875 8.726562 -2.828125 8.53125 -2.640625 C 8.34375 -2.460938 8.109375 -2.375 7.828125 -2.375 C 7.023438 -2.375 6.164062 -2.625 5.25 -3.125 C 4.34375 -3.625 3.488281 -4.3125 2.6875 -5.1875 C 1.894531 -6.070312 1.25 -7.085938 0.75 -8.234375 C 0.25 -9.390625 0 -10.632812 0 -11.96875 C 0 -13.957031 0.363281 -15.789062 1.09375 -17.46875 C 1.820312 -19.15625 2.863281 -20.613281 4.21875 -21.84375 C 5.582031 -23.082031 7.222656 -24.039062 9.140625 -24.71875 C 11.054688 -25.40625 13.195312 -25.75 15.5625 -25.75 C 16.9375 -25.75 18.234375 -25.617188 19.453125 -25.359375 C 20.671875 -25.097656 21.835938 -24.785156 22.953125 -24.421875 C 24.078125 -24.066406 25.179688 -23.757812 26.265625 -23.5 C 27.359375 -23.238281 28.46875 -23.109375 29.59375 -23.109375 C 30.207031 -23.109375 30.738281 -23.15625 31.1875 -23.25 C 31.632812 -23.351562 32.066406 -23.488281 32.484375 -23.65625 C 32.898438 -23.832031 33.347656 -24.007812 33.828125 -24.1875 C 34.304688 -24.375 34.894531 -24.550781 35.59375 -24.71875 L 35.9375 -24.796875 C 36.144531 -24.835938 36.351562 -24.875 36.5625 -24.90625 C 36.769531 -24.945312 36.960938 -24.96875 37.140625 -24.96875 C 37.253906 -24.96875 37.3125 -24.910156 37.3125 -24.796875 L 37.3125 -24.75 C 37.3125 -24.632812 37.253906 -24.578125 37.140625 -24.578125 C 36.960938 -24.578125 36.78125 -24.5625 36.59375 -24.53125 C 36.414062 -24.507812 36.242188 -24.476562 36.078125 -24.4375 C 35.222656 -24.238281 34.492188 -23.820312 33.890625 -23.1875 C 33.296875 -22.550781 32.773438 -21.738281 32.328125 -20.75 C 31.890625 -19.757812 31.476562 -18.625 31.09375 -17.34375 C 30.707031 -16.0625 30.296875 -14.660156 29.859375 -13.140625 L 27.03125 -3.109375 C 25.46875 2.410156 23.550781 6.535156 21.28125 9.265625 C 19.007812 11.992188 16.320312 13.359375 13.21875 13.359375 C 11.851562 13.359375 10.644531 13.054688 9.59375 12.453125 C 8.539062 11.847656 7.707031 11.015625 7.09375 9.953125 C 6.488281 8.890625 6.1875 7.6875 6.1875 6.34375 C 6.1875 4.875 6.453125 3.472656 6.984375 2.140625 C 7.523438 0.816406 8.269531 -0.351562 9.21875 -1.375 C 10.175781 -2.40625 11.300781 -3.210938 12.59375 -3.796875 C 13.894531 -4.390625 15.3125 -4.6875 16.84375 -4.6875 C 18.1875 -4.6875 19.242188 -4.359375 20.015625 -3.703125 C 20.785156 -3.046875 21.171875 -2.253906 21.171875 -1.328125 C 21.171875 -0.515625 21 0.265625 20.65625 1.015625 C 20.3125 1.773438 19.863281 2.445312 19.3125 3.03125 C 18.769531 3.625 18.1875 4.097656 17.5625 4.453125 C 16.9375 4.804688 16.34375 5.007812 15.78125 5.0625 C 15.632812 5.0625 15.5625 5 15.5625 4.875 C 15.5625 4.75 15.632812 4.6875 15.78125 4.6875 C 16.507812 4.632812 17.210938 4.34375 17.890625 3.8125 C 18.566406 3.289062 19.128906 2.617188 19.578125 1.796875 C 20.023438 0.984375 20.25 0.117188 20.25 -0.796875 C 20.25 -1.804688 19.875 -2.597656 19.125 -3.171875 C 18.382812 -3.742188 17.441406 -4.03125 16.296875 -4.03125 C 14.972656 -4.03125 13.71875 -3.753906 12.53125 -3.203125 C 11.351562 -2.660156 10.316406 -1.910156 9.421875 -0.953125 C 8.535156 -0.00390625 7.835938 1.09375 7.328125 2.34375 C 6.816406 3.59375 6.5625 4.9375 6.5625 6.375 C 6.5625 7.613281 6.835938 8.734375 7.390625 9.734375 C 7.953125 10.734375 8.722656 11.519531 9.703125 12.09375 C 10.679688 12.675781 11.789062 12.96875 13.03125 12.96875 C 14.550781 12.96875 15.878906 12.582031 17.015625 11.8125 C 18.148438 11.039062 19.148438 9.96875 20.015625 8.59375 C 20.878906 7.226562 21.644531 5.640625 22.3125 3.828125 C 22.988281 2.023438 23.625 0.0859375 24.21875 -1.984375 Z M 27.203125 -12.40625 "/></g></g></g><g fill="#ffffff" fill-opacity="1"><g transform="translate(46.059842, 126.218891)"><g><path d="M 7.40625 -18.75 C 6.644531 -18.75 6.09375 -18.539062 5.75 -18.125 C 5.40625 -17.71875 5.234375 -17 5.234375 -15.96875 L 5.234375 -6.046875 C 5.234375 -4.234375 5.671875 -2.773438 6.546875 -1.671875 C 7.429688 -0.578125 8.617188 -0.03125 10.109375 -0.03125 C 11.765625 -0.03125 13.082031 -0.578125 14.0625 -1.671875 C 15.039062 -2.773438 15.53125 -4.234375 15.53125 -6.046875 L 15.53125 -15.96875 C 15.53125 -17 15.359375 -17.71875 15.015625 -18.125 C 14.671875 -18.539062 14.117188 -18.75 13.359375 -18.75 L 13.359375 -19.078125 L 18.046875 -19.078125 L 18.046875 -18.75 C 17.273438 -18.75 16.71875 -18.539062 16.375 -18.125 C 16.03125 -17.71875 15.859375 -17 15.859375 -15.96875 L 15.859375 -5.71875 C 15.859375 -4.488281 15.59375 -3.410156 15.0625 -2.484375 C 14.539062 -1.554688 13.796875 -0.835938 12.828125 -0.328125 C 11.867188 0.179688 10.734375 0.4375 9.421875 0.4375 C 8.140625 0.4375 7.007812 0.179688 6.03125 -0.328125 C 5.0625 -0.835938 4.3125 -1.554688 3.78125 -2.484375 C 3.257812 -3.410156 3 -4.488281 3 -5.71875 L 3 -15.96875 C 3 -17 2.828125 -17.71875 2.484375 -18.125 C 2.140625 -18.539062 1.582031 -18.75 0.8125 -18.75 L 0.8125 -19.078125 L 7.40625 -19.078125 Z M 7.40625 -18.75 "/></g></g></g><g fill="#ffffff" fill-opacity="1"><g transform="translate(64.906002, 126.218891)"><g><path d="M 1.09375 -0.328125 C 1.851562 -0.328125 2.40625 -0.53125 2.75 -0.9375 C 3.09375 -1.34375 3.265625 -2.066406 3.265625 -3.109375 L 3.265625 -15.96875 C 3.265625 -17 3.09375 -17.71875 2.75 -18.125 C 2.40625 -18.539062 1.851562 -18.75 1.09375 -18.75 L 1.09375 -19.078125 L 7.6875 -19.078125 L 7.6875 -18.75 C 6.925781 -18.75 6.367188 -18.539062 6.015625 -18.125 C 5.671875 -17.71875 5.5 -17 5.5 -15.96875 L 5.5 -0.328125 L 10.25 -0.328125 C 11.175781 -0.328125 11.890625 -0.472656 12.390625 -0.765625 C 12.898438 -1.054688 13.3125 -1.488281 13.625 -2.0625 C 13.945312 -2.632812 14.289062 -3.351562 14.65625 -4.21875 L 14.984375 -4.21875 C 14.828125 -3.65625 14.695312 -3.164062 14.59375 -2.75 C 14.488281 -2.332031 14.410156 -1.914062 14.359375 -1.5 C 14.304688 -1.082031 14.253906 -0.582031 14.203125 0 L 1.09375 0 Z M 1.09375 -0.328125 "/></g></g></g><g fill="#ffffff" fill-opacity="1"><g transform="translate(80.020856, 126.218891)"><g><path d="M 7.6875 -18.75 C 6.925781 -18.75 6.367188 -18.539062 6.015625 -18.125 C 5.671875 -17.71875 5.5 -17 5.5 -15.96875 L 5.5 -3.109375 C 5.5 -2.066406 5.671875 -1.34375 6.015625 -0.9375 C 6.367188 -0.53125 6.925781 -0.328125 7.6875 -0.328125 L 7.6875 0 L 1.09375 0 L 1.09375 -0.328125 C 1.851562 -0.328125 2.40625 -0.53125 2.75 -0.9375 C 3.09375 -1.34375 3.265625 -2.066406 3.265625 -3.109375 L 3.265625 -15.96875 C 3.265625 -17 3.09375 -17.71875 2.75 -18.125 C 2.40625 -18.539062 1.851562 -18.75 1.09375 -18.75 L 1.09375 -19.078125 L 7.6875 -19.078125 Z M 7.6875 -18.75 "/></g></g></g><g fill="#ffffff" fill-opacity="1"><g transform="translate(88.51787, 126.218891)"><g><path d="M 10.65625 -19.515625 C 12.101562 -19.515625 13.429688 -19.269531 14.640625 -18.78125 C 15.847656 -18.289062 16.898438 -17.59375 17.796875 -16.6875 C 18.703125 -15.789062 19.398438 -14.738281 19.890625 -13.53125 C 20.378906 -12.320312 20.625 -10.988281 20.625 -9.53125 C 20.625 -8.101562 20.378906 -6.78125 19.890625 -5.5625 C 19.398438 -4.34375 18.703125 -3.28125 17.796875 -2.375 C 16.898438 -1.476562 15.847656 -0.785156 14.640625 -0.296875 C 13.429688 0.191406 12.101562 0.4375 10.65625 0.4375 C 9.21875 0.4375 7.890625 0.191406 6.671875 -0.296875 C 5.453125 -0.785156 4.394531 -1.476562 3.5 -2.375 C 2.601562 -3.28125 1.910156 -4.34375 1.421875 -5.5625 C 0.929688 -6.78125 0.6875 -8.101562 0.6875 -9.53125 C 0.6875 -10.988281 0.929688 -12.320312 1.421875 -13.53125 C 1.910156 -14.738281 2.601562 -15.789062 3.5 -16.6875 C 4.394531 -17.59375 5.453125 -18.289062 6.671875 -18.78125 C 7.890625 -19.269531 9.21875 -19.515625 10.65625 -19.515625 Z M 2.828125 -8.140625 C 2.828125 -6.578125 3.125 -5.175781 3.71875 -3.9375 C 4.3125 -2.707031 5.117188 -1.742188 6.140625 -1.046875 C 7.171875 -0.347656 8.335938 0 9.640625 0 C 10.910156 0 12.082031 -0.269531 13.15625 -0.8125 C 14.226562 -1.363281 15.164062 -2.125 15.96875 -3.09375 C 16.769531 -4.0625 17.382812 -5.210938 17.8125 -6.546875 C 18.25 -7.890625 18.46875 -9.347656 18.46875 -10.921875 C 18.46875 -12.503906 18.171875 -13.910156 17.578125 -15.140625 C 16.992188 -16.367188 16.191406 -17.332031 15.171875 -18.03125 C 14.160156 -18.726562 12.988281 -19.078125 11.65625 -19.078125 C 10.382812 -19.078125 9.210938 -18.800781 8.140625 -18.25 C 7.078125 -17.707031 6.144531 -16.953125 5.34375 -15.984375 C 4.539062 -15.015625 3.921875 -13.859375 3.484375 -12.515625 C 3.046875 -11.179688 2.828125 -9.722656 2.828125 -8.140625 Z M 2.828125 -8.140625 "/></g></g></g><g fill="#ffffff" fill-opacity="1"><g transform="translate(110.134392, 107.311624)"><g><path d="M 7.5625 -40.15625 C 7.5625 -36.488281 8.566406 -33.5625 10.578125 -31.375 C 12.585938 -29.1875 15.242188 -28.09375 18.546875 -28.09375 C 20.992188 -28.09375 22.90625 -28.523438 24.28125 -29.390625 C 25.65625 -30.253906 26.617188 -31.375 27.171875 -32.75 C 27.734375 -34.125 28.015625 -35.550781 28.015625 -37.03125 C 28.015625 -37.789062 28.226562 -38.398438 28.65625 -38.859375 C 29.09375 -39.316406 29.644531 -39.546875 30.3125 -39.546875 C 30.96875 -39.546875 31.507812 -39.316406 31.9375 -38.859375 C 32.375 -38.398438 32.59375 -37.789062 32.59375 -37.03125 C 32.59375 -36.414062 32.3125 -35.5625 31.75 -34.46875 C 31.195312 -33.375 30.359375 -32.265625 29.234375 -31.140625 C 28.117188 -30.023438 26.671875 -29.082031 24.890625 -28.3125 C 23.109375 -27.550781 20.992188 -27.171875 18.546875 -27.171875 C 15.390625 -27.171875 12.550781 -27.707031 10.03125 -28.78125 C 7.519531 -29.851562 5.535156 -31.367188 4.078125 -33.328125 C 2.628906 -35.285156 1.90625 -37.5625 1.90625 -40.15625 C 1.90625 -43.101562 2.757812 -45.660156 4.46875 -47.828125 C 6.175781 -49.992188 8.515625 -51.671875 11.484375 -52.859375 C 14.460938 -54.054688 17.835938 -54.65625 21.609375 -54.65625 C 25.117188 -54.65625 28.347656 -54.117188 31.296875 -53.046875 C 34.253906 -51.984375 36.625 -50.304688 38.40625 -48.015625 C 40.1875 -45.722656 41.078125 -42.75 41.078125 -39.09375 C 41.078125 -36.1875 40.347656 -33.410156 38.890625 -30.765625 C 37.441406 -28.117188 35.507812 -25.570312 33.09375 -23.125 C 30.675781 -20.6875 28.03125 -18.375 25.15625 -16.1875 C 22.28125 -14 19.40625 -11.945312 16.53125 -10.03125 C 13.65625 -8.125 11.019531 -6.359375 8.625 -4.734375 L 28.40625 -4.734375 C 30.332031 -4.734375 31.929688 -4.769531 33.203125 -4.84375 C 34.484375 -4.925781 35.539062 -5.15625 36.375 -5.53125 C 37.21875 -5.914062 37.96875 -6.601562 38.625 -7.59375 C 39.289062 -8.582031 40.003906 -9.992188 40.765625 -11.828125 L 41.6875 -11.828125 C 41.226562 -10.253906 40.859375 -8.878906 40.578125 -7.703125 C 40.296875 -6.535156 40.078125 -5.363281 39.921875 -4.1875 C 39.773438 -3.019531 39.625 -1.625 39.46875 0 L 2.21875 0 L 2.21875 -0.921875 C 4.09375 -2.441406 6.40625 -4.234375 9.15625 -6.296875 C 11.90625 -8.359375 14.753906 -10.632812 17.703125 -13.125 C 20.660156 -15.625 23.4375 -18.3125 26.03125 -21.1875 C 28.625 -24.0625 30.722656 -27.101562 32.328125 -30.3125 C 33.929688 -33.519531 34.734375 -36.851562 34.734375 -40.3125 C 34.734375 -44.125 33.640625 -47.316406 31.453125 -49.890625 C 29.265625 -52.460938 25.984375 -53.75 21.609375 -53.75 C 17.328125 -53.75 13.914062 -52.515625 11.375 -50.046875 C 8.832031 -47.578125 7.5625 -44.28125 7.5625 -40.15625 Z M 7.5625 -40.15625 "/></g></g></g><g fill="#ffffff" fill-opacity="1"><g transform="translate(196.33235, 126.218891)"><g><path d="M 2.703125 -14.328125 C 2.703125 -13.023438 3.054688 -11.984375 3.765625 -11.203125 C 4.484375 -10.421875 5.4375 -10.03125 6.625 -10.03125 C 7.5 -10.03125 8.179688 -10.179688 8.671875 -10.484375 C 9.160156 -10.796875 9.503906 -11.195312 9.703125 -11.6875 C 9.898438 -12.175781 10 -12.6875 10 -13.21875 C 10 -13.488281 10.078125 -13.703125 10.234375 -13.859375 C 10.390625 -14.023438 10.582031 -14.109375 10.8125 -14.109375 C 11.050781 -14.109375 11.25 -14.023438 11.40625 -13.859375 C 11.5625 -13.703125 11.640625 -13.488281 11.640625 -13.21875 C 11.640625 -13 11.535156 -12.691406 11.328125 -12.296875 C 11.128906 -11.910156 10.832031 -11.515625 10.4375 -11.109375 C 10.039062 -10.710938 9.523438 -10.378906 8.890625 -10.109375 C 8.253906 -9.835938 7.5 -9.703125 6.625 -9.703125 C 5.5 -9.703125 4.484375 -9.890625 3.578125 -10.265625 C 2.679688 -10.648438 1.972656 -11.191406 1.453125 -11.890625 C 0.941406 -12.585938 0.6875 -13.398438 0.6875 -14.328125 C 0.6875 -15.378906 0.988281 -16.289062 1.59375 -17.0625 C 2.195312 -17.84375 3.03125 -18.445312 4.09375 -18.875 C 5.15625 -19.300781 6.363281 -19.515625 7.71875 -19.515625 C 8.96875 -19.515625 10.117188 -19.320312 11.171875 -18.9375 C 12.222656 -18.550781 13.066406 -17.945312 13.703125 -17.125 C 14.335938 -16.3125 14.65625 -15.253906 14.65625 -13.953125 C 14.65625 -12.921875 14.394531 -11.929688 13.875 -10.984375 C 13.363281 -10.035156 12.675781 -9.125 11.8125 -8.25 C 10.945312 -7.382812 10 -6.5625 8.96875 -5.78125 C 7.945312 -5 6.921875 -4.265625 5.890625 -3.578125 C 4.867188 -2.898438 3.929688 -2.269531 3.078125 -1.6875 L 10.140625 -1.6875 C 10.828125 -1.6875 11.394531 -1.695312 11.84375 -1.71875 C 12.300781 -1.75 12.679688 -1.832031 12.984375 -1.96875 C 13.285156 -2.113281 13.550781 -2.363281 13.78125 -2.71875 C 14.019531 -3.070312 14.273438 -3.570312 14.546875 -4.21875 L 14.875 -4.21875 C 14.71875 -3.65625 14.585938 -3.164062 14.484375 -2.75 C 14.378906 -2.332031 14.300781 -1.914062 14.25 -1.5 C 14.195312 -1.082031 14.144531 -0.582031 14.09375 0 L 0.796875 0 L 0.796875 -0.328125 C 1.460938 -0.867188 2.285156 -1.507812 3.265625 -2.25 C 4.242188 -2.988281 5.257812 -3.800781 6.3125 -4.6875 C 7.375 -5.570312 8.367188 -6.523438 9.296875 -7.546875 C 10.222656 -8.578125 10.972656 -9.664062 11.546875 -10.8125 C 12.117188 -11.957031 12.40625 -13.148438 12.40625 -14.390625 C 12.40625 -15.753906 12.015625 -16.894531 11.234375 -17.8125 C 10.453125 -18.726562 9.28125 -19.1875 7.71875 -19.1875 C 6.1875 -19.1875 4.96875 -18.742188 4.0625 -17.859375 C 3.15625 -16.984375 2.703125 -15.804688 2.703125 -14.328125 Z M 2.703125 -14.328125 "/></g></g></g><g fill="#ffffff" fill-opacity="1"><g transform="translate(212.428037, 126.218891)"><g><path d="M 9.015625 -19.515625 C 10.703125 -19.515625 12.171875 -19.101562 13.421875 -18.28125 C 14.679688 -17.46875 15.648438 -16.3125 16.328125 -14.8125 C 17.015625 -13.3125 17.359375 -11.550781 17.359375 -9.53125 C 17.359375 -7.519531 17.015625 -5.765625 16.328125 -4.265625 C 15.648438 -2.765625 14.679688 -1.601562 13.421875 -0.78125 C 12.171875 0.03125 10.703125 0.4375 9.015625 0.4375 C 7.328125 0.4375 5.859375 0.03125 4.609375 -0.78125 C 3.367188 -1.601562 2.40625 -2.765625 1.71875 -4.265625 C 1.03125 -5.765625 0.6875 -7.519531 0.6875 -9.53125 C 0.6875 -11.550781 1.03125 -13.3125 1.71875 -14.8125 C 2.40625 -16.3125 3.367188 -17.46875 4.609375 -18.28125 C 5.859375 -19.101562 7.328125 -19.515625 9.015625 -19.515625 Z M 2.96875 -9.53125 C 2.96875 -7.570312 3.21875 -5.867188 3.71875 -4.421875 C 4.21875 -2.984375 4.921875 -1.867188 5.828125 -1.078125 C 6.734375 -0.285156 7.796875 0.109375 9.015625 0.109375 C 10.253906 0.109375 11.320312 -0.285156 12.21875 -1.078125 C 13.125 -1.867188 13.820312 -2.984375 14.3125 -4.421875 C 14.8125 -5.867188 15.0625 -7.570312 15.0625 -9.53125 C 15.0625 -11.5 14.8125 -13.203125 14.3125 -14.640625 C 13.820312 -16.085938 13.125 -17.207031 12.21875 -18 C 11.320312 -18.789062 10.253906 -19.1875 9.015625 -19.1875 C 7.796875 -19.1875 6.734375 -18.789062 5.828125 -18 C 4.921875 -17.207031 4.21875 -16.085938 3.71875 -14.640625 C 3.21875 -13.203125 2.96875 -11.5 2.96875 -9.53125 Z M 2.96875 -9.53125 "/></g></g></g><g fill="#ffffff" fill-opacity="1"><g transform="translate(230.729607, 126.218891)"><g><path d="M 2.703125 -14.328125 C 2.703125 -13.023438 3.054688 -11.984375 3.765625 -11.203125 C 4.484375 -10.421875 5.4375 -10.03125 6.625 -10.03125 C 7.5 -10.03125 8.179688 -10.179688 8.671875 -10.484375 C 9.160156 -10.796875 9.503906 -11.195312 9.703125 -11.6875 C 9.898438 -12.175781 10 -12.6875 10 -13.21875 C 10 -13.488281 10.078125 -13.703125 10.234375 -13.859375 C 10.390625 -14.023438 10.582031 -14.109375 10.8125 -14.109375 C 11.050781 -14.109375 11.25 -14.023438 11.40625 -13.859375 C 11.5625 -13.703125 11.640625 -13.488281 11.640625 -13.21875 C 11.640625 -13 11.535156 -12.691406 11.328125 -12.296875 C 11.128906 -11.910156 10.832031 -11.515625 10.4375 -11.109375 C 10.039062 -10.710938 9.523438 -10.378906 8.890625 -10.109375 C 8.253906 -9.835938 7.5 -9.703125 6.625 -9.703125 C 5.5 -9.703125 4.484375 -9.890625 3.578125 -10.265625 C 2.679688 -10.648438 1.972656 -11.191406 1.453125 -11.890625 C 0.941406 -12.585938 0.6875 -13.398438 0.6875 -14.328125 C 0.6875 -15.378906 0.988281 -16.289062 1.59375 -17.0625 C 2.195312 -17.84375 3.03125 -18.445312 4.09375 -18.875 C 5.15625 -19.300781 6.363281 -19.515625 7.71875 -19.515625 C 8.96875 -19.515625 10.117188 -19.320312 11.171875 -18.9375 C 12.222656 -18.550781 13.066406 -17.945312 13.703125 -17.125 C 14.335938 -16.3125 14.65625 -15.253906 14.65625 -13.953125 C 14.65625 -12.921875 14.394531 -11.929688 13.875 -10.984375 C 13.363281 -10.035156 12.675781 -9.125 11.8125 -8.25 C 10.945312 -7.382812 10 -6.5625 8.96875 -5.78125 C 7.945312 -5 6.921875 -4.265625 5.890625 -3.578125 C 4.867188 -2.898438 3.929688 -2.269531 3.078125 -1.6875 L 10.140625 -1.6875 C 10.828125 -1.6875 11.394531 -1.695312 11.84375 -1.71875 C 12.300781 -1.75 12.679688 -1.832031 12.984375 -1.96875 C 13.285156 -2.113281 13.550781 -2.363281 13.78125 -2.71875 C 14.019531 -3.070312 14.273438 -3.570312 14.546875 -4.21875 L 14.875 -4.21875 C 14.71875 -3.65625 14.585938 -3.164062 14.484375 -2.75 C 14.378906 -2.332031 14.300781 -1.914062 14.25 -1.5 C 14.195312 -1.082031 14.144531 -0.582031 14.09375 0 L 0.796875 0 L 0.796875 -0.328125 C 1.460938 -0.867188 2.285156 -1.507812 3.265625 -2.25 C 4.242188 -2.988281 5.257812 -3.800781 6.3125 -4.6875 C 7.375 -5.570312 8.367188 -6.523438 9.296875 -7.546875 C 10.222656 -8.578125 10.972656 -9.664062 11.546875 -10.8125 C 12.117188 -11.957031 12.40625 -13.148438 12.40625 -14.390625 C 12.40625 -15.753906 12.015625 -16.894531 11.234375 -17.8125 C 10.453125 -18.726562 9.28125 -19.1875 7.71875 -19.1875 C 6.1875 -19.1875 4.96875 -18.742188 4.0625 -17.859375 C 3.15625 -16.984375 2.703125 -15.804688 2.703125 -14.328125 Z M 2.703125 -14.328125 "/></g></g></g><g fill="#ffffff" fill-opacity="1"><g transform="translate(246.825295, 126.218891)"><g><path d="M 8.25 0.109375 C 9.269531 0.109375 10.179688 -0.15625 10.984375 -0.6875 C 11.785156 -1.226562 12.410156 -1.96875 12.859375 -2.90625 C 13.316406 -3.84375 13.546875 -4.910156 13.546875 -6.109375 C 13.546875 -7.253906 13.316406 -8.273438 12.859375 -9.171875 C 12.410156 -10.066406 11.785156 -10.769531 10.984375 -11.28125 C 10.179688 -11.789062 9.269531 -12.046875 8.25 -12.046875 C 7.238281 -12.046875 6.332031 -11.789062 5.53125 -11.28125 C 4.726562 -10.769531 4.097656 -10.066406 3.640625 -9.171875 C 3.191406 -8.273438 2.96875 -7.253906 2.96875 -6.109375 C 2.96875 -4.910156 3.191406 -3.84375 3.640625 -2.90625 C 4.097656 -1.96875 4.726562 -1.226562 5.53125 -0.6875 C 6.332031 -0.15625 7.238281 0.109375 8.25 0.109375 Z M 0.6875 -8.28125 C 0.6875 -9.84375 0.90625 -11.304688 1.34375 -12.671875 C 1.789062 -14.035156 2.414062 -15.226562 3.21875 -16.25 C 4.019531 -17.28125 4.953125 -18.082031 6.015625 -18.65625 C 7.078125 -19.226562 8.222656 -19.515625 9.453125 -19.515625 C 10.203125 -19.515625 10.925781 -19.375 11.625 -19.09375 C 12.320312 -18.820312 12.890625 -18.453125 13.328125 -17.984375 C 13.773438 -17.515625 14 -16.96875 14 -16.34375 C 14 -16.070312 13.921875 -15.84375 13.765625 -15.65625 C 13.617188 -15.476562 13.425781 -15.390625 13.1875 -15.390625 C 12.945312 -15.390625 12.75 -15.476562 12.59375 -15.65625 C 12.445312 -15.84375 12.375 -16.070312 12.375 -16.34375 C 12.375 -17.164062 12.085938 -17.84375 11.515625 -18.375 C 10.941406 -18.914062 10.253906 -19.1875 9.453125 -19.1875 C 8.347656 -19.1875 7.335938 -18.773438 6.421875 -17.953125 C 5.503906 -17.140625 4.738281 -16.023438 4.125 -14.609375 C 3.519531 -13.191406 3.117188 -11.566406 2.921875 -9.734375 C 3.265625 -10.234375 3.734375 -10.679688 4.328125 -11.078125 C 4.929688 -11.484375 5.597656 -11.800781 6.328125 -12.03125 C 7.066406 -12.257812 7.800781 -12.375 8.53125 -12.375 C 9.945312 -12.375 11.203125 -12.097656 12.296875 -11.546875 C 13.398438 -11.003906 14.265625 -10.265625 14.890625 -9.328125 C 15.515625 -8.398438 15.828125 -7.328125 15.828125 -6.109375 C 15.828125 -4.847656 15.503906 -3.722656 14.859375 -2.734375 C 14.210938 -1.742188 13.335938 -0.96875 12.234375 -0.40625 C 11.140625 0.15625 9.90625 0.4375 8.53125 0.4375 C 6.0625 0.4375 4.132812 -0.316406 2.75 -1.828125 C 1.375 -3.347656 0.6875 -5.5 0.6875 -8.28125 Z M 0.6875 -8.28125 "/></g></g></g><g fill="#ffffff" fill-opacity="1"><g transform="translate(147.045127, 144.774141)"><g><path d="M 37.34375 -54.125 C 37.5 -52.53125 37.664062 -51.125 37.84375 -49.90625 C 38.03125 -48.695312 38.25 -47.5 38.5 -46.3125 C 38.757812 -45.132812 39.125 -43.742188 39.59375 -42.140625 L 38.671875 -42.140625 C 37.890625 -43.992188 37.164062 -45.421875 36.5 -46.421875 C 35.832031 -47.429688 35.070312 -48.128906 34.21875 -48.515625 C 33.363281 -48.910156 32.289062 -49.144531 31 -49.21875 C 29.71875 -49.289062 28.097656 -49.328125 26.140625 -49.328125 L 9.28125 -49.328125 L 7.578125 -34.71875 C 10.617188 -34.71875 13.8125 -34.523438 17.15625 -34.140625 C 20.507812 -33.753906 23.785156 -33.125 26.984375 -32.25 C 30.179688 -31.375 33.066406 -30.1875 35.640625 -28.6875 C 38.222656 -27.195312 40.273438 -25.351562 41.796875 -23.15625 C 43.316406 -20.96875 44.078125 -18.351562 44.078125 -15.3125 C 44.078125 -10.3125 42.117188 -6.300781 38.203125 -3.28125 C 34.285156 -0.269531 28.742188 1.234375 21.578125 1.234375 C 17.710938 1.234375 14.269531 0.691406 11.25 -0.390625 C 8.238281 -1.472656 5.867188 -3.054688 4.140625 -5.140625 C 2.410156 -7.234375 1.546875 -9.75 1.546875 -12.6875 C 1.546875 -16.863281 2.988281 -20.097656 5.875 -22.390625 C 8.757812 -24.679688 12.703125 -25.828125 17.703125 -25.828125 C 20.179688 -25.828125 22.320312 -25.488281 24.125 -24.8125 C 25.925781 -24.144531 27.394531 -23.304688 28.53125 -22.296875 C 29.664062 -21.296875 30.515625 -20.289062 31.078125 -19.28125 C 31.648438 -18.28125 31.9375 -17.472656 31.9375 -16.859375 C 31.9375 -16.035156 31.726562 -15.378906 31.3125 -14.890625 C 30.90625 -14.398438 30.335938 -14.15625 29.609375 -14.15625 C 28.941406 -14.15625 28.390625 -14.398438 27.953125 -14.890625 C 27.515625 -15.378906 27.296875 -16.035156 27.296875 -16.859375 C 27.296875 -19.128906 26.613281 -21.035156 25.25 -22.578125 C 23.882812 -24.128906 21.367188 -24.90625 17.703125 -24.90625 C 14.554688 -24.90625 12.03125 -23.796875 10.125 -21.578125 C 8.21875 -19.359375 7.265625 -16.394531 7.265625 -12.6875 C 7.265625 -8.769531 8.566406 -5.625 11.171875 -3.25 C 13.773438 -0.875 17.242188 0.3125 21.578125 0.3125 C 26.679688 0.3125 30.625 -1.117188 33.40625 -3.984375 C 36.1875 -6.847656 37.578125 -10.625 37.578125 -15.3125 C 37.578125 -18.757812 36.726562 -21.65625 35.03125 -24 C 33.332031 -26.351562 31.035156 -28.25 28.140625 -29.6875 C 25.253906 -31.132812 22.019531 -32.179688 18.4375 -32.828125 C 14.851562 -33.472656 11.207031 -33.796875 7.5 -33.796875 L 6.578125 -33.796875 L 8.890625 -54.125 Z M 37.34375 -54.125 "/></g></g></g></svg>